<svg width="60" height="60" viewBox="0 0 60 60" fill="none" xmlns="http://www.w3.org/2000/svg">
<rect width="60" height="60" rx="30" fill="url(#paint0_linear_2807_1147)"/>
<path d="M43.5 18.75H16.5C16.2016 18.75 15.9155 18.8685 15.7045 19.0795C15.4935 19.2905 15.375 19.5766 15.375 19.875V39C15.375 39.5967 15.6121 40.169 16.034 40.591C16.456 41.0129 17.0283 41.25 17.625 41.25H42.375C42.9717 41.25 43.544 41.0129 43.966 40.591C44.3879 40.169 44.625 39.5967 44.625 39V19.875C44.625 19.5766 44.5065 19.2905 44.2955 19.0795C44.0845 18.8685 43.7984 18.75 43.5 18.75ZM42.375 39H17.625V22.433L29.2392 33.0797C29.4468 33.2702 29.7183 33.3759 30 33.3759C30.2817 33.3759 30.5532 33.2702 30.7608 33.0797L42.375 22.433V39Z" fill="white"/>
<defs>
<linearGradient id="paint0_linear_2807_1147" x1="-4.6875" y1="-6" x2="58.4492" y2="61.4614" gradientUnits="userSpaceOnUse">
<stop stop-color="#085D56"/>
<stop offset="1" stop-color="#00998C"/>
</linearGradient>
</defs>
</svg>
