<svg width="60" height="60" viewBox="0 0 60 60" fill="none" xmlns="http://www.w3.org/2000/svg">
<rect width="60" height="60" rx="30" fill="url(#paint0_linear_2807_1162)"/>
<path d="M44.4225 27.5644C44.9365 30.6196 44.4662 33.759 43.0796 36.5295C41.693 39.2999 39.4618 41.558 36.7081 42.9778C33.9545 44.3975 30.8209 44.9053 27.7598 44.428C24.6987 43.9507 21.8685 42.5129 19.6778 40.3222C17.4871 38.1316 16.0493 35.3014 15.572 32.2403C15.0947 29.1792 15.6025 26.0456 17.0223 23.2919C18.442 20.5383 20.7001 18.3071 23.4706 16.9204C26.241 15.5338 29.3805 15.0636 32.4356 15.5775C32.7277 15.6292 32.9875 15.794 33.1586 16.0362C33.3297 16.2785 33.3982 16.5785 33.3493 16.871C33.3004 17.1635 33.1379 17.4248 32.8973 17.5981C32.6567 17.7715 32.3573 17.8428 32.0644 17.7966C30.2899 17.4981 28.4716 17.5898 26.7362 18.0655C25.0008 18.5411 23.3898 19.3892 22.0155 20.5507C20.6411 21.7122 19.5364 23.1593 18.7782 24.7912C18.02 26.4231 17.6264 28.2006 17.625 30C17.6223 33.0294 18.7357 35.9535 20.7525 38.2139C21.5704 37.0276 22.6094 36.0101 23.8125 35.2172C23.9152 35.1491 24.0375 35.1166 24.1604 35.1248C24.2834 35.1329 24.4003 35.1812 24.4931 35.2622C26.0214 36.5846 27.9748 37.3125 29.9958 37.3125C32.0168 37.3125 33.9702 36.5846 35.4984 35.2622C35.5913 35.1812 35.7082 35.1329 35.8312 35.1248C35.9541 35.1166 36.0764 35.1491 36.1791 35.2172C37.3834 36.0101 38.4237 37.0276 39.2433 38.2139C41.2616 35.9541 42.3765 33.0299 42.375 30C42.3751 29.3083 42.3177 28.6178 42.2034 27.9356C42.1776 27.7893 42.1809 27.6393 42.2134 27.4942C42.2458 27.3492 42.3066 27.212 42.3924 27.0907C42.4781 26.9693 42.5871 26.8661 42.7129 26.787C42.8388 26.708 42.979 26.6547 43.1256 26.6302C43.2722 26.6056 43.4222 26.6104 43.5669 26.6442C43.7116 26.6779 43.8482 26.74 43.9688 26.8269C44.0894 26.9138 44.1916 27.0237 44.2695 27.1503C44.3473 27.2768 44.3993 27.4176 44.4225 27.5644ZM23.8125 28.875C23.8125 30.0988 24.1754 31.2951 24.8553 32.3126C25.5352 33.3301 26.5015 34.1232 27.6322 34.5915C28.7628 35.0598 30.0069 35.1824 31.2071 34.9436C32.4074 34.7049 33.5099 34.1156 34.3752 33.2502C35.2406 32.3849 35.8299 31.2824 36.0686 30.0821C36.3074 28.8819 36.1848 27.6378 35.7165 26.5072C35.2482 25.3765 34.4551 24.4102 33.4376 23.7303C32.4201 23.0504 31.2238 22.6875 30 22.6875C28.359 22.6875 26.7852 23.3394 25.6248 24.4998C24.4644 25.6602 23.8125 27.234 23.8125 28.875ZM45.4209 16.8291C45.3165 16.7245 45.1924 16.6415 45.0558 16.5849C44.9192 16.5283 44.7728 16.4991 44.625 16.4991C44.4772 16.4991 44.3308 16.5283 44.1942 16.5849C44.0576 16.6415 43.9335 16.7245 43.8291 16.8291L40.125 20.5345L38.6709 19.0791C38.5664 18.9746 38.4423 18.8916 38.3058 18.8351C38.1692 18.7785 38.0228 18.7494 37.875 18.7494C37.7272 18.7494 37.5808 18.7785 37.4442 18.8351C37.3077 18.8916 37.1836 18.9746 37.0791 19.0791C36.9745 19.1836 36.8916 19.3077 36.8351 19.4443C36.7785 19.5808 36.7494 19.7272 36.7494 19.875C36.7494 20.0228 36.7785 20.1692 36.8351 20.3058C36.8916 20.4423 36.9745 20.5664 37.0791 20.671L39.3291 22.921C39.4335 23.0256 39.5576 23.1085 39.6942 23.1651C39.8308 23.2218 39.9772 23.2509 40.125 23.2509C40.2728 23.2509 40.4192 23.2218 40.5558 23.1651C40.6924 23.1085 40.8165 23.0256 40.9209 22.921L45.4209 18.421C45.5255 18.3165 45.6085 18.1924 45.6651 18.0558C45.7218 17.9193 45.7509 17.7729 45.7509 17.625C45.7509 17.4772 45.7218 17.3308 45.6651 17.1942C45.6085 17.0576 45.5255 16.9336 45.4209 16.8291Z" fill="white"/>
<defs>
<linearGradient id="paint0_linear_2807_1162" x1="-4.6875" y1="-6" x2="58.4492" y2="61.4614" gradientUnits="userSpaceOnUse">
<stop stop-color="#085D56"/>
<stop offset="1" stop-color="#00998C"/>
</linearGradient>
</defs>
</svg>
