<svg width="60" height="60" viewBox="0 0 60 60" fill="none" xmlns="http://www.w3.org/2000/svg">
<rect width="60" height="60" rx="30" fill="url(#paint0_linear_2807_1169)"/>
<path d="M43 40C43 40.2652 42.8946 40.5196 42.7071 40.7071C42.5196 40.8946 42.2652 41 42 41H18C17.7348 41 17.4804 40.8946 17.2929 40.7071C17.1054 40.5196 17 40.2652 17 40C17 39.7348 17.1054 39.4804 17.2929 39.2929C17.4804 39.1054 17.7348 39 18 39H42C42.2652 39 42.5196 39.1054 42.7071 39.2929C42.8946 39.4804 43 39.7348 43 40ZM43 21V35C43 35.5304 42.7893 36.0391 42.4142 36.4142C42.0391 36.7893 41.5304 37 41 37H19C18.4696 37 17.9609 36.7893 17.5858 36.4142C17.2107 36.0391 17 35.5304 17 35V21C17 20.4696 17.2107 19.9609 17.5858 19.5858C17.9609 19.2107 18.4696 19 19 19H41C41.5304 19 42.0391 19.2107 42.4142 19.5858C42.7893 19.9609 43 20.4696 43 21ZM34.5 28C34.5 27.8393 34.4612 27.681 34.387 27.5385C34.3128 27.396 34.2053 27.2734 34.0737 27.1812L29.0737 23.6812C28.9239 23.5763 28.7482 23.5144 28.5656 23.5024C28.3831 23.4904 28.2008 23.5287 28.0385 23.6132C27.8762 23.6976 27.7402 23.8249 27.6452 23.9813C27.5503 24.1377 27.5001 24.3171 27.5 24.5V31.5C27.5001 31.6829 27.5503 31.8624 27.6452 32.0187C27.7402 32.1751 27.8762 32.3024 28.0385 32.3868C28.2008 32.4713 28.3831 32.5096 28.5656 32.4976C28.7482 32.4856 28.9239 32.4237 29.0737 32.3188L34.0737 28.8188C34.2053 28.7266 34.3128 28.604 34.387 28.4615C34.4612 28.319 34.5 28.1607 34.5 28Z" fill="white"/>
<defs>
<linearGradient id="paint0_linear_2807_1169" x1="-4.6875" y1="-6" x2="58.4492" y2="61.4614" gradientUnits="userSpaceOnUse">
<stop stop-color="#085D56"/>
<stop offset="1" stop-color="#00998C"/>
</linearGradient>
</defs>
</svg>
