<svg width="60" height="60" viewBox="0 0 60 60" fill="none" xmlns="http://www.w3.org/2000/svg">
<rect width="60" height="60" rx="30" fill="url(#paint0_linear_2807_1155)"/>
<path d="M43 35H42V23C42 22.2044 41.6839 21.4413 41.1213 20.8787C40.5587 20.3161 39.7956 20 39 20H21C20.2044 20 19.4413 20.3161 18.8787 20.8787C18.3161 21.4413 18 22.2044 18 23V35H17C16.7348 35 16.4804 35.1054 16.2929 35.2929C16.1054 35.4804 16 35.7348 16 36V38C16 38.7956 16.3161 39.5587 16.8787 40.1213C17.4413 40.6839 18.2044 41 19 41H41C41.7956 41 42.5587 40.6839 43.1213 40.1213C43.6839 39.5587 44 38.7956 44 38V36C44 35.7348 43.8946 35.4804 43.7071 35.2929C43.5196 35.1054 43.2652 35 43 35ZM28 23H32C32.2652 23 32.5196 23.1054 32.7071 23.2929C32.8946 23.4804 33 23.7348 33 24C33 24.2652 32.8946 24.5196 32.7071 24.7071C32.5196 24.8946 32.2652 25 32 25H28C27.7348 25 27.4804 24.8946 27.2929 24.7071C27.1054 24.5196 27 24.2652 27 24C27 23.7348 27.1054 23.4804 27.2929 23.2929C27.4804 23.1054 27.7348 23 28 23ZM42 38C42 38.2652 41.8946 38.5196 41.7071 38.7071C41.5196 38.8946 41.2652 39 41 39H19C18.7348 39 18.4804 38.8946 18.2929 38.7071C18.1054 38.5196 18 38.2652 18 38V37H42V38Z" fill="white"/>
<defs>
<linearGradient id="paint0_linear_2807_1155" x1="-4.6875" y1="-6" x2="58.4492" y2="61.4614" gradientUnits="userSpaceOnUse">
<stop stop-color="#085D56"/>
<stop offset="1" stop-color="#00998C"/>
</linearGradient>
</defs>
</svg>
