<svg width="32" height="31" viewBox="0 0 32 31" fill="none" xmlns="http://www.w3.org/2000/svg">
<path d="M29.1304 11.8344C28.8212 11.8862 28.5453 12.0586 28.3633 12.3137C28.1813 12.5689 28.1081 12.8859 28.1598 13.195C28.2798 13.9117 28.3401 14.637 28.34 15.3637C28.3428 18.546 27.1732 21.6178 25.0546 23.9924C23.7365 22.0824 21.8831 20.6047 19.7275 19.7452C20.8854 18.8332 21.7304 17.5831 22.1448 16.1686C22.5593 14.7541 22.5227 13.2457 22.0401 11.853C21.5575 10.4603 20.6529 9.2526 19.4521 8.39785C18.2513 7.54311 16.814 7.0838 15.34 7.0838C13.8661 7.0838 12.4288 7.54311 11.228 8.39785C10.0272 9.2526 9.12257 10.4603 8.63997 11.853C8.15737 13.2457 8.12075 14.7541 8.53521 16.1686C8.94967 17.5831 9.79461 18.8332 10.9525 19.7452C8.7969 20.6047 6.94354 22.0824 5.62547 23.9924C3.96312 22.1192 2.87726 19.8056 2.49844 17.33C2.11963 14.8543 2.46399 12.3219 3.49013 10.0373C4.51626 7.75268 6.18048 5.81311 8.28267 4.45179C10.3849 3.09047 12.8355 2.36536 15.34 2.36365C16.0666 2.36354 16.792 2.42382 17.5086 2.54388C17.8164 2.59244 18.1308 2.51752 18.3836 2.33542C18.6364 2.15332 18.8071 1.87878 18.8585 1.57151C18.9099 1.26424 18.8379 0.949104 18.6581 0.694646C18.4784 0.440188 18.2054 0.266997 17.8987 0.212744C14.6892 -0.327177 11.3912 0.166852 8.48079 1.6235C5.57041 3.08015 3.19826 5.42404 1.70683 8.31676C0.21541 11.2095 -0.318109 14.5013 0.18331 17.717C0.684729 20.9327 2.19514 23.9059 4.49646 26.2072C6.79778 28.5085 9.77093 30.0189 12.9866 30.5204C16.2023 31.0218 19.4942 30.4883 22.3869 28.9968C25.2796 27.5054 27.6235 25.1333 29.0802 22.2229C30.5368 19.3125 31.0308 16.0145 30.4909 12.805C30.4392 12.4959 30.2668 12.22 30.0116 12.038C29.7565 11.856 29.4395 11.7827 29.1304 11.8344ZM10.6127 14.1818C10.6127 13.2469 10.89 12.3329 11.4094 11.5555C11.9289 10.7781 12.6672 10.1722 13.531 9.8144C14.3948 9.45661 15.3453 9.36299 16.2623 9.54539C17.1793 9.7278 18.0216 10.178 18.6827 10.8391C19.3438 11.5003 19.7941 12.3426 19.9765 13.2596C20.1589 14.1766 20.0652 15.1271 19.7074 15.9909C19.3496 16.8547 18.7437 17.593 17.9663 18.1124C17.1889 18.6319 16.275 18.9091 15.34 18.9091C14.0863 18.9091 12.8839 18.4111 11.9973 17.5245C11.1108 16.638 10.6127 15.4356 10.6127 14.1818ZM7.37456 25.6307C8.22951 24.2936 9.4073 23.1932 10.7994 22.431C12.1914 21.6688 13.7529 21.2693 15.34 21.2693C16.9271 21.2693 18.4886 21.6688 19.8807 22.431C21.2727 23.1932 22.4505 24.2936 23.3055 25.6307C21.028 27.4019 18.2252 28.3636 15.34 28.3636C12.4549 28.3636 9.65202 27.4019 7.37456 25.6307ZM31.5398 3.19979L26.8125 7.92706C26.7028 8.03694 26.5724 8.12411 26.4289 8.18359C26.2855 8.24306 26.1317 8.27367 25.9764 8.27367C25.8211 8.27367 25.6673 8.24306 25.5238 8.18359C25.3803 8.12411 25.25 8.03694 25.1402 7.92706L22.7766 5.56343C22.6668 5.45362 22.5797 5.32327 22.5203 5.1798C22.4608 5.03634 22.4303 4.88257 22.4303 4.72729C22.4303 4.572 22.4608 4.41824 22.5203 4.27478C22.5797 4.13131 22.6668 4.00096 22.7766 3.89115C22.9984 3.6694 23.2991 3.54481 23.6127 3.54481C23.768 3.54481 23.9218 3.5754 24.0653 3.63482C24.2087 3.69425 24.3391 3.78135 24.4489 3.89115L25.9764 5.42013L29.8675 1.52752C29.9773 1.41771 30.1077 1.33061 30.2511 1.27119C30.3946 1.21176 30.5484 1.18118 30.7036 1.18118C30.8589 1.18118 31.0127 1.21176 31.1562 1.27119C31.2996 1.33061 31.43 1.41771 31.5398 1.52752C31.6496 1.63732 31.7367 1.76767 31.7961 1.91114C31.8555 2.0546 31.8861 2.20837 31.8861 2.36365C31.8861 2.51894 31.8555 2.6727 31.7961 2.81617C31.7367 2.95963 31.6496 3.08999 31.5398 3.19979Z" fill="white"/>
<path d="M29.1304 11.8344C28.8212 11.8862 28.5453 12.0586 28.3633 12.3137C28.1813 12.5689 28.1081 12.8859 28.1598 13.195C28.2798 13.9117 28.3401 14.637 28.34 15.3637C28.3428 18.546 27.1732 21.6178 25.0546 23.9924C23.7365 22.0824 21.8831 20.6047 19.7275 19.7452C20.8854 18.8332 21.7304 17.5831 22.1448 16.1686C22.5593 14.7541 22.5227 13.2457 22.0401 11.853C21.5575 10.4603 20.6529 9.2526 19.4521 8.39785C18.2513 7.54311 16.814 7.0838 15.34 7.0838C13.8661 7.0838 12.4288 7.54311 11.228 8.39785C10.0272 9.2526 9.12257 10.4603 8.63997 11.853C8.15737 13.2457 8.12075 14.7541 8.53521 16.1686C8.94967 17.5831 9.79461 18.8332 10.9525 19.7452C8.7969 20.6047 6.94354 22.0824 5.62547 23.9924C3.96312 22.1192 2.87726 19.8056 2.49844 17.33C2.11963 14.8543 2.46399 12.3219 3.49013 10.0373C4.51626 7.75268 6.18048 5.81311 8.28267 4.45179C10.3849 3.09047 12.8355 2.36536 15.34 2.36365C16.0666 2.36354 16.792 2.42382 17.5086 2.54388C17.8164 2.59244 18.1308 2.51752 18.3836 2.33542C18.6364 2.15332 18.8071 1.87878 18.8585 1.57151C18.9099 1.26424 18.8379 0.949104 18.6581 0.694646C18.4784 0.440188 18.2054 0.266997 17.8987 0.212744C14.6892 -0.327177 11.3912 0.166852 8.48079 1.6235C5.57041 3.08015 3.19826 5.42404 1.70683 8.31676C0.21541 11.2095 -0.318109 14.5013 0.18331 17.717C0.684729 20.9327 2.19514 23.9059 4.49646 26.2072C6.79778 28.5085 9.77093 30.0189 12.9866 30.5204C16.2023 31.0218 19.4942 30.4883 22.3869 28.9968C25.2796 27.5054 27.6235 25.1333 29.0802 22.2229C30.5368 19.3125 31.0308 16.0145 30.4909 12.805C30.4392 12.4959 30.2668 12.22 30.0116 12.038C29.7565 11.856 29.4395 11.7827 29.1304 11.8344ZM10.6127 14.1818C10.6127 13.2469 10.89 12.3329 11.4094 11.5555C11.9289 10.7781 12.6672 10.1722 13.531 9.8144C14.3948 9.45661 15.3453 9.36299 16.2623 9.54539C17.1793 9.7278 18.0216 10.178 18.6827 10.8391C19.3438 11.5003 19.7941 12.3426 19.9765 13.2596C20.1589 14.1766 20.0652 15.1271 19.7074 15.9909C19.3496 16.8547 18.7437 17.593 17.9663 18.1124C17.1889 18.6319 16.275 18.9091 15.34 18.9091C14.0863 18.9091 12.8839 18.4111 11.9973 17.5245C11.1108 16.638 10.6127 15.4356 10.6127 14.1818ZM7.37456 25.6307C8.22951 24.2936 9.4073 23.1932 10.7994 22.431C12.1914 21.6688 13.7529 21.2693 15.34 21.2693C16.9271 21.2693 18.4886 21.6688 19.8807 22.431C21.2727 23.1932 22.4505 24.2936 23.3055 25.6307C21.028 27.4019 18.2252 28.3636 15.34 28.3636C12.4549 28.3636 9.65202 27.4019 7.37456 25.6307ZM31.5398 3.19979L26.8125 7.92706C26.7028 8.03694 26.5724 8.12411 26.4289 8.18359C26.2855 8.24306 26.1317 8.27367 25.9764 8.27367C25.8211 8.27367 25.6673 8.24306 25.5238 8.18359C25.3803 8.12411 25.25 8.03694 25.1402 7.92706L22.7766 5.56343C22.6668 5.45362 22.5797 5.32327 22.5203 5.1798C22.4608 5.03634 22.4303 4.88257 22.4303 4.72729C22.4303 4.572 22.4608 4.41824 22.5203 4.27478C22.5797 4.13131 22.6668 4.00096 22.7766 3.89115C22.9984 3.6694 23.2991 3.54481 23.6127 3.54481C23.768 3.54481 23.9218 3.5754 24.0653 3.63482C24.2087 3.69425 24.3391 3.78135 24.4489 3.89115L25.9764 5.42013L29.8675 1.52752C29.9773 1.41771 30.1077 1.33061 30.2511 1.27119C30.3946 1.21176 30.5484 1.18118 30.7036 1.18118C30.8589 1.18118 31.0127 1.21176 31.1562 1.27119C31.2996 1.33061 31.43 1.41771 31.5398 1.52752C31.6496 1.63732 31.7367 1.76767 31.7961 1.91114C31.8555 2.0546 31.8861 2.20837 31.8861 2.36365C31.8861 2.51894 31.8555 2.6727 31.7961 2.81617C31.7367 2.95963 31.6496 3.08999 31.5398 3.19979Z" fill="url(#paint0_linear_2159_264)"/>
<defs>
<linearGradient id="paint0_linear_2159_264" x1="-2.4911" y1="-3.07037" x2="29.7142" y2="32.6661" gradientUnits="userSpaceOnUse">
<stop stop-color="#085D56"/>
<stop offset="1" stop-color="#00998C"/>
</linearGradient>
</defs>
</svg>
