<svg width="26" height="26" viewBox="0 0 26 26" fill="none" xmlns="http://www.w3.org/2000/svg">
<path d="M22.1924 3.80763C20.3743 1.98954 18.0579 0.751414 15.5362 0.249806C13.0144 -0.251802 10.4006 0.00564121 8.02512 0.989581C5.64968 1.97352 3.61936 3.63976 2.1909 5.7776C0.76244 7.91544 4.15389e-06 10.4289 4.0696e-06 13C4.0696e-06 15.5712 0.762442 18.0846 2.1909 20.2224C3.61936 22.3603 5.64968 24.0265 8.02512 25.0104C10.4006 25.9944 13.0144 26.2518 15.5362 25.7502C18.0579 25.2486 20.3743 24.0105 22.1924 22.1924C24.627 19.7526 25.9943 16.4467 25.9943 13C25.9943 9.55332 24.627 6.24738 22.1924 3.80763ZM15.1213 17.9498C14.9338 18.1373 14.6794 18.2427 14.4142 18.2427C14.149 18.2427 13.8946 18.1373 13.7071 17.9498C13.5196 17.7622 13.4142 17.5079 13.4142 17.2427C13.4142 16.9774 13.5196 16.7231 13.7071 16.5355L16.243 13.9997L7.34315 14.0006C7.21175 14.0006 7.08165 13.9747 6.96025 13.9244C6.83886 13.8741 6.72856 13.8004 6.63565 13.7075C6.54274 13.6146 6.46904 13.5043 6.41876 13.3829C6.36847 13.2615 6.34259 13.1314 6.34259 13C6.34259 12.8686 6.36847 12.7385 6.41876 12.6171C6.46904 12.4957 6.54274 12.3854 6.63565 12.2925C6.72856 12.1996 6.83886 12.1259 6.96025 12.0756C7.08165 12.0253 7.21175 11.9995 7.34315 11.9995L16.243 12.0003L13.7071 9.46448C13.5196 9.27694 13.4142 9.02259 13.4142 8.75737C13.4142 8.49216 13.5196 8.2378 13.7071 8.05027C13.8946 7.86273 14.149 7.75737 14.4142 7.75737C14.6794 7.75737 14.9338 7.86273 15.1213 8.05027L19.364 12.2929C19.5515 12.4804 19.6569 12.7348 19.6569 13C19.6569 13.2652 19.5515 13.5196 19.364 13.7071L15.1213 17.9498Z" fill="white"/>
</svg>
