<svg width="43" height="43" viewBox="0 0 43 43" fill="none" xmlns="http://www.w3.org/2000/svg">
<path d="M41.7756 35.2747L35.2756 41.7747C35.1247 41.9258 34.9455 42.0456 34.7482 42.1274C34.5509 42.2092 34.3395 42.2513 34.1259 42.2513C33.9124 42.2513 33.7009 42.2092 33.5036 42.1274C33.3064 42.0456 33.1271 41.9258 32.9762 41.7747L26.4762 35.2747C26.1713 34.9698 26 34.5562 26 34.125C26 33.6938 26.1713 33.2802 26.4762 32.9753C26.7811 32.6704 27.1947 32.4991 27.6259 32.4991C28.0571 32.4991 28.4707 32.6704 28.7756 32.9753L32.5009 36.7027V25.0473L21.1259 13.6723L9.7509 25.0473V36.7027L13.4762 32.9753C13.7811 32.6704 14.1947 32.4991 14.6259 32.4991C15.0571 32.4991 15.4707 32.6704 15.7756 32.9753C16.0805 33.2802 16.2518 33.6938 16.2518 34.125C16.2518 34.5562 16.0805 34.9698 15.7756 35.2747L9.27559 41.7747C9.12467 41.9258 8.94545 42.0456 8.74818 42.1274C8.55091 42.2092 8.33945 42.2513 8.1259 42.2513C7.91235 42.2513 7.7009 42.2092 7.50363 42.1274C7.30635 42.0456 7.12714 41.9258 6.97622 41.7747L0.476216 35.2747C0.325237 35.1237 0.205474 34.9445 0.123764 34.7472C0.0420549 34.5499 0 34.3385 0 34.125C0 33.9115 0.0420549 33.7001 0.123764 33.5028C0.205474 33.3055 0.325237 33.1263 0.476216 32.9753C0.781132 32.6704 1.19469 32.4991 1.6259 32.4991C1.83942 32.4991 2.05085 32.5412 2.24811 32.6229C2.44537 32.7046 2.62461 32.8243 2.77559 32.9753L6.5009 36.7027V24.375C6.50074 24.1615 6.54263 23.9501 6.62418 23.7529C6.70574 23.5556 6.82536 23.3763 6.97622 23.2253L19.5009 10.7027V1.625C19.5009 1.19402 19.6721 0.780698 19.9769 0.475951C20.2816 0.171205 20.6949 0 21.1259 0C21.5569 0 21.9702 0.171205 22.275 0.475951C22.5797 0.780698 22.7509 1.19402 22.7509 1.625V10.7027L35.2756 23.2253C35.4265 23.3763 35.5461 23.5556 35.6276 23.7529C35.7092 23.9501 35.7511 24.1615 35.7509 24.375V36.7027L39.4762 32.9753C39.7811 32.6704 40.1947 32.4991 40.6259 32.4991C41.0571 32.4991 41.4707 32.6704 41.7756 32.9753C42.0805 33.2802 42.2518 33.6938 42.2518 34.125C42.2518 34.5562 42.0805 34.9698 41.7756 35.2747Z" fill="white"/>
</svg>
