<svg width="43" height="39" viewBox="0 0 43 39" fill="none" xmlns="http://www.w3.org/2000/svg">
<path d="M41.5269 13.2732L22.0269 0.273243C21.7598 0.0950799 21.446 0 21.125 0C20.804 0 20.4902 0.0950799 20.2231 0.273243L0.723125 13.2732C0.500522 13.4218 0.318042 13.623 0.191892 13.859C0.0657417 14.095 -0.000173467 14.3585 3.42843e-07 14.6261V35.7511C3.42843e-07 36.613 0.34241 37.4397 0.951903 38.0492C1.5614 38.6586 2.38805 39.0011 3.25 39.0011H39C39.862 39.0011 40.6886 38.6586 41.2981 38.0492C41.9076 37.4397 42.25 36.613 42.25 35.7511V14.6261C42.2502 14.3585 42.1843 14.095 42.0581 13.859C41.932 13.623 41.7495 13.4218 41.5269 13.2732ZM21.125 3.57809L37.763 14.6707L24.1536 24.3761H18.1005L4.49109 14.6707L21.125 3.57809ZM3.25 35.7511V17.7806L16.6359 27.3275C16.9115 27.5243 17.2418 27.6301 17.5805 27.6301H24.6695C25.0082 27.6301 25.3385 27.5243 25.6141 27.3275L39 17.7806V35.7511H3.25Z" fill="white"/>
</svg>
