<svg width="43" height="36" viewBox="0 0 43 36" fill="none" xmlns="http://www.w3.org/2000/svg">
<path d="M39 0H3.25C2.38805 0 1.5614 0.34241 0.951903 0.951903C0.34241 1.5614 0 2.38805 0 3.25V32.5C0 33.362 0.34241 34.1886 0.951903 34.7981C1.5614 35.4076 2.38805 35.75 3.25 35.75H5.96984C6.27739 35.7501 6.57865 35.6629 6.83861 35.4986C7.09858 35.3343 7.30658 35.0996 7.43844 34.8217C8.22863 33.1534 9.47621 31.7437 11.0361 30.7565C12.5959 29.7694 14.404 29.2453 16.25 29.2453C18.096 29.2453 19.9041 29.7694 21.4639 30.7565C23.0238 31.7437 24.2714 33.1534 25.0616 34.8217C25.1934 35.0996 25.4014 35.3343 25.6614 35.4986C25.9214 35.6629 26.2226 35.7501 26.5302 35.75H39C39.862 35.75 40.6886 35.4076 41.2981 34.7981C41.9076 34.1886 42.25 33.362 42.25 32.5V3.25C42.25 2.38805 41.9076 1.5614 41.2981 0.951903C40.6886 0.34241 39.862 0 39 0ZM11.375 21.125C11.375 20.1608 11.6609 19.2183 12.1966 18.4166C12.7323 17.6149 13.4936 16.9901 14.3844 16.6211C15.2752 16.2521 16.2554 16.1556 17.2011 16.3437C18.1467 16.5318 19.0154 16.9961 19.6971 17.6779C20.3789 18.3596 20.8432 19.2283 21.0313 20.1739C21.2194 21.1196 21.1229 22.0998 20.7539 22.9906C20.3849 23.8814 19.7601 24.6427 18.9584 25.1784C18.1567 25.7141 17.2142 26 16.25 26C14.9571 26 13.7171 25.4864 12.8029 24.5721C11.8886 23.6579 11.375 22.4179 11.375 21.125ZM39 32.5H27.5092C26.1522 30.167 24.1067 28.3108 21.6531 27.1862C22.8832 26.091 23.7514 24.6477 24.1426 23.0477C24.5337 21.4478 24.4294 19.7667 23.8434 18.2274C23.2574 16.6882 22.2174 15.3633 20.8613 14.4285C19.5052 13.4937 17.8971 12.9931 16.25 12.9931C14.6029 12.9931 12.9948 13.4937 11.6387 14.4285C10.2826 15.3633 9.24261 16.6882 8.65662 18.2274C8.07063 19.7667 7.96629 21.4478 8.35745 23.0477C8.74861 24.6477 9.61678 26.091 10.8469 27.1862C8.39334 28.3108 6.34779 30.167 4.99078 32.5H3.25V3.25H39V32.5ZM6.5 11.375V8.125C6.5 7.69402 6.67121 7.2807 6.97595 6.97595C7.2807 6.67121 7.69402 6.5 8.125 6.5H34.125C34.556 6.5 34.9693 6.67121 35.274 6.97595C35.5788 7.2807 35.75 7.69402 35.75 8.125V27.625C35.75 28.056 35.5788 28.4693 35.274 28.774C34.9693 29.0788 34.556 29.25 34.125 29.25H30.875C30.444 29.25 30.0307 29.0788 29.726 28.774C29.4212 28.4693 29.25 28.056 29.25 27.625C29.25 27.194 29.4212 26.7807 29.726 26.476C30.0307 26.1712 30.444 26 30.875 26H32.5V9.75H9.75V11.375C9.75 11.806 9.57879 12.2193 9.27405 12.524C8.9693 12.8288 8.55598 13 8.125 13C7.69402 13 7.2807 12.8288 6.97595 12.524C6.67121 12.2193 6.5 11.806 6.5 11.375Z" fill="white"/>
</svg>
