<svg width="14" height="24" viewBox="0 0 14 24" fill="none" xmlns="http://www.w3.org/2000/svg">
<path d="M13.5238 13.1084L2.76082 23.5409C2.45752 23.8348 2.04617 24 1.61725 24C1.18833 24 0.776974 23.8348 0.473681 23.5409C0.170388 23.2469 3.19571e-09 22.8482 0 22.4324C-3.19571e-09 22.0167 0.170388 21.618 0.473681 21.324L10.0945 12.0013L0.476372 2.67602C0.326197 2.53046 0.207071 2.35765 0.125796 2.16746C0.0445219 1.97728 0.0026903 1.77344 0.0026903 1.56758C0.00269029 1.36172 0.0445219 1.15788 0.125796 0.967691C0.207071 0.777504 0.326197 0.604696 0.476372 0.459133C0.626548 0.31357 0.804832 0.198103 1.00105 0.119325C1.19726 0.0405468 1.40756 -1.53376e-09 1.61994 0C1.83232 1.53376e-09 2.04262 0.0405468 2.23883 0.119325C2.43505 0.198103 2.61333 0.31357 2.76351 0.459133L13.5265 10.8916C13.6768 11.0371 13.796 11.21 13.8773 11.4003C13.9586 11.5906 14.0002 11.7946 14 12.0005C13.9997 12.2065 13.9576 12.4104 13.8758 12.6005C13.7941 12.7906 13.6745 12.9632 13.5238 13.1084Z" fill="white"/>
</svg>
